<?xml version="1.0" encoding="UTF-8" standalone="no"?>
<!-- Created with Inkscape (http://www.inkscape.org/) -->

<svg
   xmlns:dc="http://purl.org/dc/elements/1.1/"
   xmlns:cc="http://creativecommons.org/ns#"
   xmlns:rdf="http://www.w3.org/1999/02/22-rdf-syntax-ns#"
   xmlns:svg="http://www.w3.org/2000/svg"
   xmlns="http://www.w3.org/2000/svg"
   xmlns:sodipodi="http://sodipodi.sourceforge.net/DTD/sodipodi-0.dtd"
   xmlns:inkscape="http://www.inkscape.org/namespaces/inkscape"
   width="31"
   height="31"
   id="svg2"
   version="1.1"
   inkscape:version="0.48.3.1 r9886"
   sodipodi:docname="favicon.svg">
  <defs
     id="defs4" />
  <sodipodi:namedview
     id="base"
     pagecolor="#ffffff"
     bordercolor="#666666"
     borderopacity="1.0"
     inkscape:pageopacity="0.0"
     inkscape:pageshadow="2"
     inkscape:zoom="2.8"
     inkscape:cx="49.52009"
     inkscape:cy="17.690141"
     inkscape:document-units="px"
     inkscape:current-layer="layer1"
     showgrid="false"
     fit-margin-left="0.2"
     fit-margin-top="0.5"
     fit-margin-right="0.2"
     fit-margin-bottom="0.2"
     inkscape:window-width="783"
     inkscape:window-height="559"
     inkscape:window-x="150"
     inkscape:window-y="150"
     inkscape:window-maximized="0" />
  <metadata
     id="metadata7">
    <rdf:RDF>
      <cc:Work
         rdf:about="">
        <dc:format>image/svg+xml</dc:format>
        <dc:type
           rdf:resource="http://purl.org/dc/dcmitype/StillImage" />
        <dc:title />
      </cc:Work>
    </rdf:RDF>
  </metadata>
  <g
     inkscape:label="Ebene 1"
     inkscape:groupmode="layer"
     id="layer1"
     transform="translate(-163.97673,-363.40178)">
    <path
       style="fill:none;stroke:#f7df1e;stroke-width:3;stroke-linecap:round;stroke-linejoin:round;stroke-miterlimit:4;stroke-opacity:1;stroke-dasharray:none"
       d="M 8.2142857,7.4285714 8.5985734,17.769485 7.1428572,29.214286 13.253587,23.830474 17.142857,22.428571"
       id="path3815"
       inkscape:connector-curvature="0"
       transform="translate(163.97673,363.40178)"
       sodipodi:nodetypes="ccccc" />
    <path
       style="font-size:40px;font-style:normal;font-variant:normal;font-weight:normal;font-stretch:normal;line-height:125%;letter-spacing:0px;word-spacing:0px;fill:#f7df1e;fill-opacity:1;stroke:#837505;stroke-width:1.15950894;stroke-miterlimit:4;stroke-opacity:1;stroke-dasharray:none;font-family:AR BERKLEY;-inkscape-font-specification:AR BERKLEY"
       d="m 179.36766,364.71591 c -1.9297,3e-5 -3.86008,0.88156 -5.77127,2.63072 -1.83773,1.69093 -2.75643,3.30887 -2.75643,4.86853 0,2.02634 0.9805,3.95178 2.92871,5.77391 2.03962,1.90934 4.30602,2.86987 6.80492,2.86987 2.84829,0 5.43995,-1.30281 7.774,-3.91191 2.15007,-2.39066 3.23017,-4.77876 3.23019,-7.14052 -2e-5,-1.45734 -0.55566,-2.63474 -1.65816,-3.55317 -1.10255,-0.9184 -2.54874,-1.38367 -4.34999,-1.38367 -2.11311,0 -4.31109,0.52458 -6.58959,1.58867 -2.51743,1.18067 -3.76856,2.50777 -3.76856,3.98023 l 0.40916,0.37582 c 0.55126,-0.2331 1.22786,-0.74028 2.04579,-1.52035 0.81792,-0.78004 1.62171,-1.33625 2.41187,-1.65701 1.26795,-0.50979 3.00631,-0.75161 5.21137,-0.75163 1.35993,2e-5 2.43698,0.20705 3.20865,0.61498 0.91857,0.48089 1.3782,1.21731 1.37823,2.23782 -3e-5,1.92446 -0.68947,3.74659 -2.06733,5.46642 -1.54389,1.93869 -3.44667,2.9211 -5.70667,2.9211 -2.24207,0 -4.16016,-0.68707 -5.74973,-2.0499 -1.58959,-1.36281 -2.39034,-2.94104 -2.39034,-4.74895 0,-1.61795 0.49328,-2.88881 1.48589,-3.79233 1.35936,-0.67084 2.73163,-1.34533 4.09157,-2.01575 l 0.25842,-0.54663 -0.4307,-0.25625 z"
       id="text2985-4"
       inkscape:connector-curvature="0" />
  </g>
</svg>
