<?xml version="1.0" encoding="UTF-8" standalone="no"?>
<!-- Created with Inkscape (http://www.inkscape.org/) -->

<svg
   xmlns:dc="http://purl.org/dc/elements/1.1/"
   xmlns:cc="http://creativecommons.org/ns#"
   xmlns:rdf="http://www.w3.org/1999/02/22-rdf-syntax-ns#"
   xmlns:svg="http://www.w3.org/2000/svg"
   xmlns="http://www.w3.org/2000/svg"
   xmlns:sodipodi="http://sodipodi.sourceforge.net/DTD/sodipodi-0.dtd"
   xmlns:inkscape="http://www.inkscape.org/namespaces/inkscape"
   width="31"
   height="31"
   id="svg2"
   version="1.1"
   inkscape:version="0.48.3.1 r9886"
   sodipodi:docname="Neues Dokument 1">
  <defs
     id="defs4" />
  <sodipodi:namedview
     id="base"
     pagecolor="#ffffff"
     bordercolor="#666666"
     borderopacity="1.0"
     inkscape:pageopacity="0.0"
     inkscape:pageshadow="2"
     inkscape:zoom="1.4"
     inkscape:cx="186.02328"
     inkscape:cy="-46.099622"
     inkscape:document-units="px"
     inkscape:current-layer="layer1"
     showgrid="false"
     fit-margin-left="0.2"
     fit-margin-top="0.5"
     fit-margin-right="0.2"
     fit-margin-bottom="0.2"
     inkscape:window-width="783"
     inkscape:window-height="559"
     inkscape:window-x="150"
     inkscape:window-y="150"
     inkscape:window-maximized="0" />
  <metadata
     id="metadata7">
    <rdf:RDF>
      <cc:Work
         rdf:about="">
        <dc:format>image/svg+xml</dc:format>
        <dc:type
           rdf:resource="http://purl.org/dc/dcmitype/StillImage" />
        <dc:title></dc:title>
      </cc:Work>
    </rdf:RDF>
  </metadata>
  <g
     inkscape:label="Ebene 1"
     inkscape:groupmode="layer"
     id="layer1"
     transform="translate(-163.97673,-363.40178)">
    <path
       style="font-size:40px;font-style:normal;font-variant:normal;font-weight:normal;font-stretch:normal;line-height:125%;letter-spacing:0px;word-spacing:0px;fill:#f7df1e;fill-opacity:1;stroke:none;font-family:AR BERKLEY;-inkscape-font-specification:AR BERKLEY"
       d="m 12.5625,0.5 c -2.8003038,2.768e-5 -5.6015706,1.6126563 -8.375,4.8125 -2.6668321,3.0932815 -4.00000132,6.053077 -4,8.90625 -1.32e-6,3.706879 1.4228488,7.229173 4.25,10.5625 2.9597897,3.492838 6.248686,5.249998 9.875,5.25 4.133281,-2e-6 7.894182,-2.3833 11.28125,-7.15625 3.120087,-4.373363 4.687469,-8.742011 4.6875,-13.0625 C 30.281219,7.1465054 29.474904,4.9926176 27.875,3.3125 26.275038,1.6324322 24.176407,0.7812774 21.5625,0.78125 18.496074,0.7812774 15.306461,1.7409118 12,3.6875 8.346833,5.847353 6.5312424,8.275085 6.53125,10.96875 l 0.59375,0.6875 c 0.7999584,-0.426415 1.7818096,-1.35423 2.96875,-2.78125 1.186918,-1.4269812 2.353339,-2.444477 3.5,-3.03125 1.83999,-0.9325939 4.362611,-1.3749763 7.5625,-1.375 1.973446,2.37e-5 3.536433,0.3787668 4.65625,1.125 1.33298,0.8797418 1.999971,2.2269084 2,4.09375 -2.9e-5,3.520523 -1.000516,6.853853 -3,10 -2.240421,3.546554 -5.001649,5.343753 -8.28125,5.34375 -3.253595,3e-6 -6.03704,-1.256913 -8.34375,-3.75 C 5.880771,18.788177 4.7187442,15.901054 4.71875,12.59375 4.7187442,9.6339704 5.4345638,7.3091029 6.875,5.65625 8.8476463,4.4290602 10.839018,3.1951747 12.8125,1.96875 l 0.375,-1 L 12.5625,0.5 z"
       transform="translate(163.97673,364.18274)"
       id="text2985"
       inkscape:connector-curvature="0" />
  </g>
</svg>
